<svg width="184" height="60" viewBox="0 0 184 60" fill="none" xmlns="http://www.w3.org/2000/svg">
<path fill-rule="evenodd" clip-rule="evenodd" d="M156.674 22.0583V17.5534H177.384V22.0194H169.711V34.835H164.347V22.0194H156.674V22.0583ZM78.2587 17.6311V34.9126H83.6221V22.7961L90.6689 34.9126H95.0536L101.631 22.7961V34.9126H106.328L108.403 27.4563L106.603 27.4175L108.677 17.6311H97.8723L93.2919 27.301H92.4698L87.8893 17.6311H78.2587ZM66.5923 30.9903C69.1762 30.9903 70.6638 30.9515 71.0553 30.8738C71.4468 30.7961 71.6817 30.4854 71.6817 29.9417C71.6817 29.2816 71.4076 28.8544 70.8204 28.699C70.2332 28.5437 68.8238 28.4272 66.5923 28.4272C62.1294 28.4272 59.3106 28.1165 58.1362 27.4563C56.9617 26.7961 56.3745 25.2039 56.3745 22.6796C56.3745 20.3107 57.1183 18.835 58.6451 18.1748C59.8196 17.6699 62.4034 17.4369 66.4357 17.4369C70.0374 17.4369 72.3081 17.5146 73.2476 17.7087C75.0485 18.0583 76.1447 19.3398 76.497 21.5922H66.5532H66.4357C64.0085 21.5922 62.6383 21.6311 62.2468 21.7087C61.8553 21.7864 61.6987 22.1359 61.6987 22.6796C61.6987 23.2621 62.0119 23.6505 62.6383 23.8447C63.2647 24.0388 64.5566 24.1165 66.5532 24.1165C70.977 24.1165 73.7957 24.466 75.0876 25.165C76.3796 25.8641 77.0059 27.4563 77.0059 29.9417C77.0059 32.233 76.3013 33.7087 74.8527 34.3689C73.6 34.9126 70.8596 35.1845 66.514 35.1845C63.1864 35.1845 61.0332 35.1068 60.0545 34.9515C58.5276 34.7184 57.4706 34.2136 56.9225 33.3592C56.5702 32.8155 56.3353 32.0388 56.1787 30.9903H66.3966H66.5923ZM115.568 17.6311H124.963L133.576 34.8738H127.312L125.668 31.9612H115.059L113.414 34.8738H107.151L107.19 34.7961L114.315 24.9709L111.066 24.7767L115.568 17.6311ZM120.735 21.5146H119.913L117.016 27.4951H123.632L120.735 21.5146ZM134.281 17.5534H149.862C151.78 17.5534 153.151 17.9029 153.934 18.6019C154.795 19.3398 155.226 20.699 155.226 22.6019C155.226 24.0777 155.03 25.2039 154.677 25.9029C154.325 26.6019 153.699 27.1456 152.798 27.4951C153.777 27.9223 154.403 28.3495 154.717 28.7379C155.03 29.165 155.186 29.9029 155.186 30.9903V34.8738H149.823V31.767C149.823 31.301 149.705 30.9515 149.471 30.6408C149.157 30.2524 148.688 30.0194 148.1 30.0194H139.644V34.835H134.281V17.5534ZM139.605 22.0583V25.5922H148.218C148.805 25.5922 149.236 25.4757 149.471 25.2039C149.705 24.9709 149.862 24.5049 149.862 23.8447C149.862 23.1845 149.745 22.7184 149.471 22.4466C149.197 22.1748 148.805 22.0583 148.218 22.0583H139.605Z" fill="#4878A6"/>
<path fill-rule="evenodd" clip-rule="evenodd" d="M10.1396 13.3592L16.9515 9.47573L26.1906 4.19417L35.4298 9.47573L44.6689 14.7573V20.8932L39.3055 17.8252L26.1906 10.2913L15.503 16.4272L10.1396 13.3592ZM7.71234 17.5146V23.8058L26.5038 34.5631L31.7498 31.2621L7.71234 17.5146Z" fill="#4878A6"/>
<path fill-rule="evenodd" clip-rule="evenodd" d="M42.2417 37.2816L35.4298 41.165L26.1906 46.4466L16.9515 41.165L7.71234 35.8835V29.7476L13.0757 32.8155L26.1906 40.3107L36.8783 34.1748L42.2417 37.2816ZM30.6928 18.7961L26.3081 16.2719L21.1404 19.2233L24.4289 21.1262L43.2204 31.8835L44.7081 32.7379V26.7961L43.2204 25.9418L30.6928 18.7961Z" fill="#2A5275"/>
</svg>
